<svg width="380" height="110" viewBox="0 0 380 110" fill="none" xmlns="http://www.w3.org/2000/svg">
<path d="M109.988 65.0728L110 27.64C110 23.9228 106.951 20.9263 103.226 21.0014C99.569 21.069 96.7152 24.2082 96.7152 27.858L96.7166 38.8699C96.7152 42.0445 94.1919 44.7105 91.0151 44.7406L89.6701 44.6608C86.7795 44.2675 84.6391 41.7591 84.6391 38.8377L84.6419 28.3147C84.6391 25.3572 82.9268 22.601 80.1932 21.467C77.4445 20.3255 75.4919 21.5046 73.6369 22.6386C71.6392 23.8477 65.6162 27.0394 65.6162 27.0394L65.2567 27.2352L64.8929 27.0416C64.8952 27.0394 58.8046 23.8252 57.2125 22.8263C55.335 21.6472 53.4274 20.3255 50.6187 21.3994C47.7949 22.4809 46 25.2896 46 28.3237L46.0005 65.0728C46.338 74.7957 54.3136 82.5836 64.1142 82.5836L91.8879 82.5864C101.687 82.5836 109.663 74.7957 109.988 65.0728ZM55.6579 45.1243C54.1334 44.5453 53.0519 43.0734 53.0519 41.3385C53.0519 39.6037 54.1334 38.1318 55.6579 37.546C56.116 37.3657 56.6117 37.2681 57.1224 37.2681C57.9184 37.2681 58.6544 37.5009 59.2852 37.8989C60.4268 38.6199 61.1853 39.8891 61.1853 41.3385C61.1853 42.788 60.4268 44.0647 59.2852 44.7781C58.6544 45.1762 57.9184 45.4015 57.1224 45.4015C56.6117 45.4015 56.116 45.3038 55.6579 45.1243ZM71.3586 44.4848C70.4451 43.7418 69.8669 42.6077 69.8669 41.3385C69.8669 40.0693 70.4451 38.9353 71.3614 38.1918C72.0598 37.6136 72.9535 37.2681 73.9298 37.2681C75.0488 37.2681 76.0551 37.7187 76.7911 38.4472C77.5421 39.1907 78.0002 40.212 78.0002 41.3385C78.0002 42.4726 77.5421 43.4864 76.7911 44.2224C76.0551 44.9584 75.0488 45.4015 73.9298 45.4015C72.9535 45.4015 72.0598 45.056 71.3586 44.4848ZM64.1125 75.9389C57.9935 75.9372 52.9768 71.1158 52.6614 65.0702L60.4925 65.0728V59.9097C60.4944 58.4239 61.696 57.2223 63.1829 57.2223L69.88 57.2225C71.3689 57.2223 72.5705 58.4239 72.5705 59.9108L72.5731 65.0728H82.2305V59.9097C82.2284 58.4239 83.43 57.2223 84.917 57.2223L91.618 57.2225C93.1029 57.2223 94.3045 58.4239 94.3045 59.9108L94.3052 65.0728H103.341C103.024 71.1158 98.007 75.9372 91.8863 75.9372L64.1125 75.9389Z" fill="white"/>
<path d="M135.944 76C134.072 76 132.632 75.496 131.624 74.488C130.616 73.48 130.112 72.04 130.112 70.168V31.072C130.112 29.2 130.616 27.76 131.624 26.752C132.632 25.744 134.072 25.24 135.944 25.24H153.368C156.968 25.24 160.04 25.768 162.584 26.824C165.128 27.88 167.048 29.392 168.344 31.36C169.688 33.328 170.36 35.68 170.36 38.416C170.36 41.44 169.496 44.008 167.768 46.12C166.04 48.232 163.664 49.648 160.64 50.368V49.216C164.144 49.84 166.856 51.232 168.776 53.392C170.744 55.504 171.728 58.264 171.728 61.672C171.728 66.184 170.168 69.712 167.048 72.256C163.928 74.752 159.632 76 154.16 76H135.944ZM140.768 67.72H152.648C155.528 67.72 157.64 67.168 158.984 66.064C160.328 64.912 161 63.232 161 61.024C161 58.816 160.328 57.16 158.984 56.056C157.64 54.952 155.528 54.4 152.648 54.4H140.768V67.72ZM140.768 46.12H151.424C154.208 46.12 156.272 45.592 157.616 44.536C158.96 43.48 159.632 41.896 159.632 39.784C159.632 37.72 158.96 36.16 157.616 35.104C156.272 34.048 154.208 33.52 151.424 33.52H140.768V46.12ZM196.23 76.792C192.439 76.792 189.127 76.048 186.295 74.56C183.511 73.072 181.351 70.936 179.814 68.152C178.279 65.368 177.511 62.08 177.511 58.288C177.511 55.456 177.943 52.912 178.807 50.656C179.671 48.4 180.919 46.48 182.551 44.896C184.231 43.264 186.223 42.04 188.527 41.224C190.831 40.36 193.399 39.928 196.23 39.928C200.023 39.928 203.311 40.672 206.095 42.16C208.927 43.648 211.111 45.76 212.647 48.496C214.231 51.232 215.023 54.496 215.023 58.288C215.023 61.168 214.567 63.736 213.655 65.992C212.791 68.248 211.543 70.192 209.911 71.824C208.279 73.456 206.287 74.704 203.935 75.568C201.631 76.384 199.063 76.792 196.23 76.792ZM196.23 68.656C197.815 68.656 199.183 68.272 200.335 67.504C201.487 66.736 202.399 65.608 203.071 64.12C203.743 62.584 204.079 60.64 204.079 58.288C204.079 54.784 203.359 52.216 201.919 50.584C200.479 48.904 198.583 48.064 196.23 48.064C194.695 48.064 193.327 48.424 192.127 49.144C190.975 49.864 190.063 50.992 189.391 52.528C188.767 54.016 188.455 55.936 188.455 58.288C188.455 61.792 189.175 64.408 190.615 66.136C192.055 67.816 193.927 68.656 196.23 68.656ZM243.453 76.792C240.621 76.792 238.101 76.096 235.893 74.704C233.733 73.264 232.293 71.368 231.573 69.016L232.365 66.64V71.104C232.365 72.88 231.909 74.248 230.997 75.208C230.085 76.168 228.765 76.648 227.037 76.648C225.309 76.648 223.965 76.168 223.005 75.208C222.093 74.248 221.637 72.88 221.637 71.104V30.136C221.637 28.312 222.093 26.944 223.005 26.032C223.965 25.072 225.333 24.592 227.109 24.592C228.837 24.592 230.157 25.072 231.069 26.032C232.029 26.944 232.509 28.312 232.509 30.136V47.2H231.645C232.413 45.04 233.877 43.288 236.037 41.944C238.197 40.6 240.669 39.928 243.453 39.928C246.573 39.928 249.285 40.672 251.589 42.16C253.893 43.648 255.693 45.76 256.989 48.496C258.285 51.232 258.933 54.496 258.933 58.288C258.933 62.08 258.285 65.368 256.989 68.152C255.693 70.936 253.869 73.072 251.517 74.56C249.213 76.048 246.525 76.792 243.453 76.792ZM240.213 68.656C241.749 68.656 243.093 68.272 244.245 67.504C245.445 66.736 246.357 65.608 246.981 64.12C247.653 62.584 247.989 60.64 247.989 58.288C247.989 54.784 247.269 52.216 245.829 50.584C244.389 48.904 242.517 48.064 240.213 48.064C238.677 48.064 237.309 48.424 236.109 49.144C234.957 49.864 234.045 50.992 233.373 52.528C232.701 54.016 232.365 55.936 232.365 58.288C232.365 61.792 233.085 64.408 234.525 66.136C235.965 67.816 237.861 68.656 240.213 68.656ZM287.398 76.792C284.566 76.792 282.046 76.096 279.838 74.704C277.678 73.264 276.238 71.368 275.518 69.016L276.31 66.64V71.104C276.31 72.88 275.854 74.248 274.942 75.208C274.03 76.168 272.71 76.648 270.982 76.648C269.254 76.648 267.91 76.168 266.95 75.208C266.038 74.248 265.582 72.88 265.582 71.104V30.136C265.582 28.312 266.038 26.944 266.95 26.032C267.91 25.072 269.278 24.592 271.054 24.592C272.782 24.592 274.102 25.072 275.014 26.032C275.974 26.944 276.454 28.312 276.454 30.136V47.2H275.59C276.358 45.04 277.822 43.288 279.982 41.944C282.142 40.6 284.614 39.928 287.398 39.928C290.518 39.928 293.23 40.672 295.534 42.16C297.838 43.648 299.638 45.76 300.934 48.496C302.23 51.232 302.878 54.496 302.878 58.288C302.878 62.08 302.23 65.368 300.934 68.152C299.638 70.936 297.814 73.072 295.462 74.56C293.158 76.048 290.47 76.792 287.398 76.792ZM284.158 68.656C285.694 68.656 287.038 68.272 288.19 67.504C289.39 66.736 290.302 65.608 290.926 64.12C291.598 62.584 291.934 60.64 291.934 58.288C291.934 54.784 291.214 52.216 289.774 50.584C288.334 48.904 286.462 48.064 284.158 48.064C282.622 48.064 281.254 48.424 280.054 49.144C278.902 49.864 277.99 50.992 277.318 52.528C276.646 54.016 276.31 55.936 276.31 58.288C276.31 61.792 277.03 64.408 278.47 66.136C279.91 67.816 281.806 68.656 284.158 68.656ZM318.332 89.608C317.084 89.608 316.052 89.272 315.236 88.6C314.42 87.928 313.94 87.04 313.796 85.936C313.652 84.88 313.844 83.752 314.372 82.552L319.196 71.896V76.36L306.452 47.128C305.972 45.88 305.804 44.728 305.948 43.672C306.14 42.568 306.668 41.704 307.532 41.08C308.444 40.408 309.692 40.072 311.276 40.072C312.572 40.072 313.604 40.384 314.372 41.008C315.188 41.584 315.932 42.712 316.604 44.392L325.1 65.992H322.796L331.58 44.32C332.252 42.688 332.996 41.584 333.812 41.008C334.676 40.384 335.828 40.072 337.268 40.072C338.516 40.072 339.5 40.408 340.22 41.08C340.988 41.704 341.444 42.544 341.588 43.6C341.78 44.656 341.588 45.808 341.012 47.056L324.092 85.432C323.372 87.064 322.556 88.168 321.644 88.744C320.78 89.32 319.676 89.608 318.332 89.608Z" fill="white"/>
</svg>
